HIERARCHY
ROOT joint_0
{
	OFFSET 0.000000 0.000000 0.000000
	CHANNELS 6 Xposition Yposition Zposition Zrotation Yrotation Xrotation 
	JOINT joint_1
	{
		OFFSET 4.520508 -1.939880 86.268921
		CHANNELS 3 Zrotation Yrotation Xrotation
		JOINT joint_2
		{
			OFFSET -4.459717 -0.438538 78.934082
			CHANNELS 3 Zrotation Yrotation Xrotation
			JOINT joint_3
			{
				OFFSET -5.197754 -0.781128 78.796997
				CHANNELS 3 Zrotation Yrotation Xrotation
				JOINT joint_4
				{
					OFFSET 2.952026 -3.710571 109.812988
					CHANNELS 3 Zrotation Yrotation Xrotation
					JOINT joint_5
					{
						OFFSET 24.716797 -5.488037 87.903931
						CHANNELS 3 Zrotation Yrotation Xrotation
						End Site
						{
							OFFSET 0.000000 0.000000 0.000000
						}
					}
				}
				JOINT joint_6
				{
					OFFSET -3.154419 -25.484680 60.934937
					CHANNELS 3 Zrotation Yrotation Xrotation
					JOINT joint_7
					{
						OFFSET -28.997192 -144.472229 -32.671997
						CHANNELS 3 Zrotation Yrotation Xrotation
						JOINT joint_8
						{
							OFFSET 19.867676 -18.614380 -249.897949
							CHANNELS 3 Zrotation Yrotation Xrotation
							JOINT joint_9
							{
								OFFSET 5.281982 -13.816650 -264.993042
								CHANNELS 3 Zrotation Yrotation Xrotation
								End Site
								{
									OFFSET 0.000000 0.000000 0.000000
								}
							}
						}
					}
				}
				JOINT joint_10
				{
					OFFSET 6.494995 21.336792 62.257935
					CHANNELS 3 Zrotation Yrotation Xrotation
					JOINT joint_11
					{
						OFFSET 31.106567 145.200745 -27.007935
						CHANNELS 3 Zrotation Yrotation Xrotation
						JOINT joint_12
						{
							OFFSET 29.119141 24.684326 -248.460083
							CHANNELS 3 Zrotation Yrotation Xrotation
							JOINT joint_13
							{
								OFFSET 21.220093 31.248413 -262.703979
								CHANNELS 3 Zrotation Yrotation Xrotation
								End Site
								{
									OFFSET 0.000000 0.000000 0.000000
								}
							}
						}
					}
				}
			}
		}
	}
	JOINT joint_14
	{
		OFFSET -15.458496 -88.861694 -109.593018
		CHANNELS 3 Zrotation Yrotation Xrotation
		JOINT joint_15
		{
			OFFSET -6.193359 6.837952 -506.710999
			CHANNELS 3 Zrotation Yrotation Xrotation
			JOINT joint_16
			{
				OFFSET -35.096680 13.289795 -435.677025
				CHANNELS 3 Zrotation Yrotation Xrotation
				JOINT joint_17
				{
					OFFSET 158.491211 -33.916565 -71.771002
					CHANNELS 3 Zrotation Yrotation Xrotation
					End Site
					{
						OFFSET 0.000000 0.000000 0.000000
					}
				}
			}
		}
	}
	JOINT joint_18
	{
		OFFSET 23.116943 86.574158 -110.082031
		CHANNELS 3 Zrotation Yrotation Xrotation
		JOINT joint_19
		{
			OFFSET -6.125854 -0.283569 -506.757019
			CHANNELS 3 Zrotation Yrotation Xrotation
			JOINT joint_20
			{
				OFFSET -63.240234 11.589966 -432.537994
				CHANNELS 3 Zrotation Yrotation Xrotation
				JOINT joint_21
				{
					OFFSET 156.074219 -41.487305 -73.077999
					CHANNELS 3 Zrotation Yrotation Xrotation
					End Site
					{
						OFFSET 0.000000 0.000000 0.000000
					}
				}
			}
		}
	}
}
MOTION
Frames: 12
Frame Time: 0.016667
-253.378372 943.917419 1140.887939 14.912422 -1.075351 -0.204128 -0.212091 -0.013569 -0.717245 -0.159682 -0.001654 0.164409 -0.176064 0.004731 -0.097626 -0.334512 0.546052 1.297855 0.000000 0.000000 0.000000 -0.230983 0.625045 -0.174763 -0.118844 0.688383 -0.605451 -0.004129 0.153598 0.497933 0.000000 0.000000 0.000000 0.263304 0.320367 0.445686 0.072456 0.301132 0.372534 0.154613 0.783984 0.579130 0.000000 0.000000 0.000000 -0.017896 0.795276 -0.453574 -0.041872 -0.510756 -0.156099 -0.029437 0.817211 0.161656 0.000000 0.000000 0.000000 0.513315 0.490728 0.158355 0.513776 0.179511 0.333917 0.517127 0.373837 0.342313 0.000000 0.000000 0.000000 
-253.240799 944.007751 1140.878052 14.897440 -1.071244 -0.206408 -0.211744 -0.023515 -0.711172 -0.159708 -0.000054 0.162542 -0.175936 0.003225 -0.096554 -0.335251 0.547477 1.300680 0.000000 0.000000 0.000000 -0.232483 0.627584 -0.164915 -0.119937 0.694870 -0.615868 -0.004197 0.154273 0.495591 0.000000 0.000000 0.000000 0.269710 0.319602 0.449116 0.072415 0.299584 0.373959 0.154689 0.783709 0.580850 0.000000 0.000000 0.000000 -0.012809 0.797187 -0.455105 -0.036779 -0.507385 -0.154892 -0.024619 0.809033 0.162090 0.000000 0.000000 0.000000 0.518598 0.494082 0.155761 0.518982 0.186231 0.338761 0.522648 0.359232 0.341024 0.000000 0.000000 0.000000 
-253.101273 944.098450 1140.866943 14.883202 -1.066815 -0.209015 -0.212569 -0.033314 -0.705073 -0.160905 0.001637 0.160706 -0.177006 0.000545 -0.095696 -0.335836 0.550519 1.303299 0.000000 0.000000 0.000000 -0.233069 0.627858 -0.154799 -0.120780 0.699213 -0.625827 -0.004215 0.154070 0.491926 0.000000 0.000000 0.000000 0.277296 0.320200 0.454569 0.072227 0.300041 0.373236 0.154444 0.781215 0.582279 0.000000 0.000000 0.000000 -0.008204 0.798140 -0.456250 -0.032127 -0.502299 -0.153703 -0.020292 0.799624 0.162038 0.000000 0.000000 0.000000 0.523819 0.495745 0.153814 0.524129 0.195982 0.343062 0.527971 0.342773 0.339149 0.000000 0.000000 0.000000 
-252.965424 944.187317 1140.855957 14.870136 -1.061315 -0.211566 -0.214566 -0.041850 -0.698980 -0.163281 0.002708 0.159048 -0.179223 -0.000904 -0.094434 -0.336008 0.551043 1.303973 0.000000 0.000000 0.000000 -0.231851 0.625222 -0.145263 -0.121263 0.700501 -0.634019 -0.004046 0.151244 0.487639 0.000000 0.000000 0.000000 0.285751 0.320399 0.456833 0.072252 0.298771 0.374977 0.154602 0.781559 0.584075 0.000000 0.000000 0.000000 -0.003804 0.797782 -0.457325 -0.027651 -0.497272 -0.152905 -0.016158 0.790814 0.162026 0.000000 0.000000 0.000000 0.528831 0.493963 0.152647 0.529073 0.209710 0.345793 0.532780 0.325362 0.336781 0.000000 0.000000 0.000000 
-252.838898 944.272095 1140.843994 14.859058 -1.055703 -0.214098 -0.217864 -0.047003 -0.691298 -0.167187 0.005235 0.155675 -0.182849 -0.001910 -0.092829 -0.336287 0.546054 1.303883 0.000000 0.000000 0.000000 -0.230072 0.618087 -0.135515 -0.121141 0.696839 -0.639770 -0.003826 0.147411 0.481424 0.000000 0.000000 0.000000 0.295263 0.319002 0.455249 0.072588 0.294050 0.380898 0.155434 0.786552 0.586609 0.000000 0.000000 0.000000 -0.000199 0.797088 -0.458860 -0.023988 -0.492720 -0.151138 -0.012703 0.782999 0.161920 0.000000 0.000000 0.000000 0.533467 0.488556 0.153338 0.533681 0.229215 0.344991 0.536618 0.307749 0.333903 0.000000 0.000000 0.000000 
-252.718018 944.354492 1140.829956 14.849651 -1.050097 -0.216975 -0.222149 -0.047769 -0.683540 -0.172103 0.006042 0.153000 -0.187473 -0.002927 -0.090602 -0.336065 0.538343 1.301512 0.000000 0.000000 0.000000 -0.227810 0.608391 -0.126972 -0.120608 0.689998 -0.643543 -0.003449 0.141266 0.474134 0.000000 0.000000 0.000000 0.304101 0.317331 0.450412 0.073096 0.288111 0.388717 0.156655 0.794126 0.589777 0.000000 0.000000 0.000000 0.003020 0.796113 -0.459948 -0.020699 -0.487900 -0.149557 -0.009634 0.775025 0.161604 0.000000 0.000000 0.000000 0.537784 0.480528 0.155385 0.537993 0.253170 0.342268 0.539804 0.288408 0.330261 0.000000 0.000000 0.000000 
-252.589752 944.440674 1140.817017 14.840146 -1.042784 -0.219032 -0.226761 -0.051444 -0.675974 -0.177328 0.007540 0.149814 -0.192381 -0.003359 -0.088480 -0.335299 0.529525 1.297027 0.000000 0.000000 0.000000 -0.224998 0.597771 -0.119464 -0.119793 0.681504 -0.644410 -0.002967 0.133846 0.467704 0.000000 0.000000 0.000000 0.312530 0.316850 0.444627 0.073563 0.283465 0.395452 0.157717 0.800751 0.592562 0.000000 0.000000 0.000000 0.006240 0.792936 -0.461706 -0.017347 -0.481567 -0.148508 -0.006598 0.766373 0.161128 0.000000 0.000000 0.000000 0.542122 0.470106 0.154933 0.542239 0.279180 0.342565 0.543307 0.268552 0.326629 0.000000 0.000000 0.000000 
-252.451416 944.532166 1140.801025 14.831303 -1.033917 -0.220779 -0.232524 -0.057649 -0.669666 -0.183423 0.009419 0.149691 -0.198512 -0.004780 -0.088697 -0.333113 0.518805 1.287242 0.000000 0.000000 0.000000 -0.220541 0.587011 -0.114693 -0.118581 0.671629 -0.640375 -0.002403 0.125554 0.462708 0.000000 0.000000 0.000000 0.321157 0.318736 0.438794 0.073882 0.281697 0.399458 0.158675 0.806152 0.596145 0.000000 0.000000 0.000000 0.009054 0.787845 -0.463274 -0.014327 -0.473095 -0.148544 -0.004058 0.755425 0.159936 0.000000 0.000000 0.000000 0.546210 0.456127 0.150350 0.546064 0.310477 0.350088 0.547346 0.243892 0.321972 0.000000 0.000000 0.000000 
-252.306702 944.627136 1140.785034 14.822814 -1.023746 -0.221996 -0.238415 -0.065179 -0.663699 -0.189593 0.011236 0.149879 -0.204756 -0.006231 -0.089215 -0.330278 0.506015 1.274766 0.000000 0.000000 0.000000 -0.216375 0.575878 -0.111373 -0.117009 0.660265 -0.632939 -0.001693 0.115297 0.457878 0.000000 0.000000 0.000000 0.328216 0.321785 0.431966 0.074096 0.281517 0.401773 0.159563 0.810780 0.600160 0.000000 0.000000 0.000000 0.011672 0.781104 -0.465260 -0.011452 -0.463295 -0.148916 -0.001732 0.743655 0.158470 0.000000 0.000000 0.000000 0.550251 0.440134 0.143703 0.549770 0.343769 0.360275 0.551615 0.218009 0.317097 0.000000 0.000000 0.000000 
-252.157211 944.728271 1140.771973 14.812708 -1.014263 -0.223253 -0.244111 -0.071277 -0.656175 -0.195728 0.013334 0.149231 -0.210832 -0.007511 -0.088460 -0.327509 0.492872 1.262457 0.000000 0.000000 0.000000 -0.208777 0.563960 -0.108721 -0.115442 0.648796 -0.625703 -0.000894 0.103744 0.452847 0.000000 0.000000 0.000000 0.337648 0.324585 0.423848 0.073896 0.281050 0.400630 0.160060 0.813270 0.602807 0.000000 0.000000 0.000000 0.014896 0.775159 -0.467446 -0.007982 -0.453161 -0.149466 0.001153 0.732452 0.157379 0.000000 0.000000 0.000000 0.554767 0.429936 0.138911 0.554071 0.367302 0.366278 0.556068 0.197630 0.313772 0.000000 0.000000 0.000000 
-251.999939 944.840393 1140.761963 14.797929 -1.007319 -0.225257 -0.249983 -0.072888 -0.642630 -0.202701 0.014043 0.144453 -0.217360 -0.008195 -0.085935 -0.324738 0.477572 1.249700 0.000000 0.000000 0.000000 -0.191203 0.551705 -0.108417 -0.113800 0.638512 -0.617286 0.000186 0.088162 0.447030 0.000000 0.000000 0.000000 0.354022 0.327647 0.414781 0.072952 0.280506 0.393553 0.160124 0.812576 0.605299 0.000000 0.000000 0.000000 0.019619 0.771723 -0.469755 -0.003056 -0.442259 -0.149194 0.005487 0.721151 0.156925 0.000000 0.000000 0.000000 0.560784 0.431256 0.138165 0.560107 0.374335 0.364607 0.561429 0.184879 0.312903 0.000000 0.000000 0.000000 
-251.837677 944.957764 1140.754028 14.781671 -1.000963 -0.227176 -0.255757 -0.073293 -0.628471 -0.209649 0.015460 0.139207 -0.223695 -0.008582 -0.081280 -0.321818 0.460048 1.235966 0.000000 0.000000 0.000000 -0.169691 0.538756 -0.109520 -0.112135 0.628101 -0.608716 0.001385 0.070834 0.440999 0.000000 0.000000 0.000000 0.372869 0.330207 0.404492 0.071497 0.279576 0.382216 0.159795 0.809695 0.606449 0.000000 0.000000 0.000000 0.024856 0.768867 -0.472434 0.002375 -0.430879 -0.148784 0.010309 0.710022 0.156730 0.000000 0.000000 0.000000 0.567193 0.438198 0.139421 0.566662 0.371637 0.358219 0.566820 0.177139 0.313381 0.000000 0.000000 0.000000 
